<?xml version="1.0" encoding="UTF-8"?>
<!DOCTYPE svg PUBLIC "-//W3C//DTD SVG 1.1//EN" "http://www.w3.org/Graphics/SVG/1.1/DTD/svg11.dtd">
<svg xmlns="http://www.w3.org/2000/svg" version="1.1" width="808px" height="426px" style="shape-rendering:geometricPrecision; text-rendering:geometricPrecision; image-rendering:optimizeQuality; fill-rule:evenodd; clip-rule:evenodd" xmlns:xlink="http://www.w3.org/1999/xlink">
<g><path style="opacity:0.966" fill="#fefffe" d="M 198.5,-0.5 C 205.5,-0.5 212.5,-0.5 219.5,-0.5C 223.738,1.95936 228.072,4.45936 232.5,7C 235.217,11.3844 238.884,14.7177 243.5,17C 243.167,17.3333 242.833,17.6667 242.5,18C 243.264,20.0693 243.764,22.236 244,24.5C 246.186,30.2674 248.52,35.9341 251,41.5C 251.009,47.513 251.842,53.3464 253.5,59C 252.975,59.6924 252.308,60.1924 251.5,60.5C 247.336,73.3251 240.336,84.3251 230.5,93.5C 225.797,96.1825 221.464,99.3491 217.5,103C 210.843,105.155 204.176,106.988 197.5,108.5C 192.812,106.819 188.145,105.152 183.5,103.5C 183.534,98.6154 183.867,93.6154 184.5,88.5C 186.597,86.8896 188.93,85.7229 191.5,85C 198.168,85.9108 204.334,84.4108 210,80.5C 210.333,81.1667 210.667,81.8333 211,82.5C 214.607,78.391 218.44,74.391 222.5,70.5C 224.514,67.2661 225.848,63.7661 226.5,60C 225.822,57.6577 226.155,55.3243 227.5,53C 225.665,52.0723 225.332,50.9056 226.5,49.5C 224.316,44.4101 223.15,39.0768 223,33.5C 217.803,26.8756 210.97,23.7089 202.5,24C 203.706,22.9823 203.373,22.4823 201.5,22.5C 198.369,23.6903 195.203,24.6903 192,25.5C 191.586,25.0426 191.086,24.7093 190.5,24.5C 182.657,27.916 174.657,31.0827 166.5,34C 160.534,39.6453 154.201,44.812 147.5,49.5C 142.734,54.7605 138.567,60.4271 135,66.5C 129.358,77.252 124.191,88.252 119.5,99.5C 119.731,104.379 120.231,109.379 121,114.5C 123.701,119.041 126.201,123.708 128.5,128.5C 130.674,131.081 132.84,131.081 135,128.5C 135.333,129.833 135.667,131.167 136,132.5C 136.889,131.112 137.389,131.278 137.5,133C 137.095,133.945 136.428,134.612 135.5,135C 145.731,144.783 156.731,153.617 168.5,161.5C 172.682,164.444 177.015,167.944 181.5,172C 183.055,173.646 184.721,173.979 186.5,173C 186.167,173.333 185.833,173.667 185.5,174C 187.899,176.864 190.899,178.697 194.5,179.5C 195.37,181.599 196.703,181.932 198.5,180.5C 199.167,181.833 199.833,183.167 200.5,184.5C 205.23,186.395 208.397,189.729 210,194.5C 211.956,194.216 214.123,194.216 216.5,194.5C 216.608,196.783 217.441,198.783 219,200.5C 237.048,218.995 244.881,240.828 242.5,266C 241.833,269.667 241.167,273.333 240.5,277C 241.537,279.812 240.87,282.312 238.5,284.5C 238.709,285.086 239.043,285.586 239.5,286C 235.922,290.129 234.088,294.962 234,300.5C 231.04,308.819 226.374,316.485 220,323.5C 219.691,324.766 219.191,325.933 218.5,327C 219.634,328.016 219.301,328.683 217.5,329C 217.143,331.537 215.477,333.537 212.5,335C 212.957,335.414 213.291,335.914 213.5,336.5C 208.108,341.048 202.775,345.882 197.5,351C 195.5,351.833 193.5,352.667 191.5,353.5C 187.107,357.263 182.441,360.763 177.5,364C 159.607,372.304 141.774,378.137 124,381.5C 114.526,380.679 104.86,379.679 95,378.5C 89.682,376.706 84.3486,375.039 79,373.5C 78.586,373.957 78.086,374.291 77.5,374.5C 73.4013,372.743 69.2346,371.076 65,369.5C 64.6667,369.833 64.3333,370.167 64,370.5C 62.0391,367.207 59.3724,365.873 56,366.5C 50.7307,363.449 45.2307,360.783 39.5,358.5C 39.719,357.325 39.3857,356.325 38.5,355.5C 31.7476,350.659 25.4143,345.326 19.5,339.5C 18.675,338.614 17.675,338.281 16.5,338.5C 16.5875,335.402 16.0875,335.068 15,337.5C 12.8333,336 13,334.833 15.5,334C 14.5,333.167 13.5,332.333 12.5,331.5C 12.7093,330.914 13.0426,330.414 13.5,330C 12.3333,328.833 11.1667,327.667 10,326.5C 8.59032,322.156 6.59032,318.156 4,314.5C 3.11726,308.286 1.61726,302.286 -0.5,296.5C -0.5,292.5 -0.5,288.5 -0.5,284.5C 0.117425,284.389 0.617425,284.056 1,283.5C 1.76899,280.901 1.60232,278.401 0.5,276C 1,275.5 1.5,275 2,274.5C 5.44323,249.325 16.2766,227.991 34.5,210.5C 35.4287,209.311 35.762,207.978 35.5,206.5C 38.2746,205.395 40.7746,204.395 43,203.5C 44.4055,205.364 44.9055,207.197 44.5,209C 43.6721,209.915 42.6721,210.581 41.5,211C 41.8333,211.333 42.1667,211.667 42.5,212C 41.6919,212.308 41.0253,212.808 40.5,213.5C 36.6131,222.275 32.4465,230.941 28,239.5C 26.2097,249.405 24.043,259.239 21.5,269C 22.6019,271.539 22.6019,274.039 21.5,276.5C 22.1062,278.709 22.7728,280.876 23.5,283C 22.5972,289.387 23.4305,295.887 26,302.5C 27.2985,305.006 28.2985,307.673 29,310.5C 30.7583,311.469 31.2583,312.636 30.5,314C 31.4162,314.374 32.2496,314.874 33,315.5C 37.3161,324.157 43.4828,331.324 51.5,337C 63.1763,344.003 75.5096,349.67 88.5,354C 92.826,354.226 96.9927,355.059 101,356.5C 105.632,356.551 110.465,356.384 115.5,356C 117.101,355.727 118.601,355.227 120,354.5C 124.765,354.557 129.599,354.891 134.5,355.5C 139.927,353.367 145.593,351.867 151.5,351C 155.91,348.868 160.077,346.368 164,343.5C 165.558,344.345 166.558,343.679 167,341.5C 167.333,341.833 167.667,342.167 168,342.5C 172.369,338.725 177.202,335.558 182.5,333C 184.038,330.222 186.371,328.389 189.5,327.5C 190.742,325.267 192.076,323.101 193.5,321C 193.043,320.586 192.709,320.086 192.5,319.5C 198.545,316.013 202.045,311.013 203,304.5C 205.307,305.39 206.473,304.39 206.5,301.5C 209.504,297.701 211.67,293.368 213,288.5C 214.034,281.918 215.534,275.418 217.5,269C 217.043,265.915 216.377,262.915 215.5,260C 216.293,258.915 216.96,257.748 217.5,256.5C 216.52,248.459 214.353,240.792 211,233.5C 208.891,232.965 208.391,231.965 209.5,230.5C 206.495,228.674 204.661,226.007 204,222.5C 201.194,220.605 198.86,218.272 197,215.5C 196.667,215.833 196.333,216.167 196,216.5C 193.597,212.94 191.43,209.273 189.5,205.5C 188.349,204.269 187.183,204.269 186,205.5C 184.5,204.333 183,203.167 181.5,202C 182.167,201.667 182.833,201.333 183.5,201C 181.753,200.648 180.086,200.148 178.5,199.5C 178.082,198.778 177.416,198.278 176.5,198C 178.891,197.309 178.891,196.309 176.5,195C 157.547,183.336 138.547,169.836 119.5,154.5C 117.146,151.312 114.312,148.645 111,146.5C 103.689,137.017 97.8557,126.684 93.5,115.5C 94.3237,110.128 94.3237,104.628 93.5,99C 95.1848,95.1296 96.5182,91.463 97.5,88C 96.8333,87.6667 96.1667,87.3333 95.5,87C 97.901,84.8274 97.901,82.4941 95.5,80C 97,77.8333 98.1667,78 99,80.5C 99.3173,78.6992 99.984,78.3659 101,79.5C 101.456,78.2559 100.956,77.4226 99.5,77C 100.668,75.5944 100.335,74.4277 98.5,73.5C 98.8555,72.4777 99.5222,71.811 100.5,71.5C 103.574,72.5082 105.574,71.1748 106.5,67.5C 107.325,66.6143 108.325,66.281 109.5,66.5C 111.575,60.9015 114.741,55.9015 119,51.5C 119.202,49.7444 119.702,48.0777 120.5,46.5C 126.294,40.5353 131.961,34.3686 137.5,28C 143.047,24.721 148.047,20.721 152.5,16C 167.449,9.0619 182.783,3.5619 198.5,-0.5 Z"/></g>
<g><path style="opacity:1" fill="#fefffe" d="M 244.5,11.5 C 245.833,12.1667 245.833,12.1667 244.5,11.5 Z"/></g>
<g><path style="opacity:0.839" fill="#fefffe" d="M 245.5,17.5 C 243.912,16.3647 243.579,15.0314 244.5,13.5C 246.642,14.4371 246.976,15.7704 245.5,17.5 Z"/></g>
<g><path style="opacity:1" fill="#fefffe" d="M 245.5,17.5 C 246.833,18.1667 246.833,18.1667 245.5,17.5 Z"/></g>
<g><path style="opacity:0.58" fill="#fefffe" d="M 210.5,33.5 C 211.833,34.1667 211.833,34.1667 210.5,33.5 Z"/></g>
<g><path style="opacity:0.122" fill="#fefffe" d="M 167.5,45.5 C 168.833,46.1667 168.833,46.1667 167.5,45.5 Z"/></g>
<g><path style="opacity:0.22" fill="#fefffe" d="M 153.5,49.5 C 154.833,50.1667 154.833,50.1667 153.5,49.5 Z"/></g>
<g><path style="opacity:0.251" fill="#fefffe" d="M 161.5,57.5 C 162.833,58.1667 162.833,58.1667 161.5,57.5 Z"/></g>
<g><path style="opacity:0.098" fill="#fefffe" d="M 254.5,62.5 C 255.833,63.1667 255.833,63.1667 254.5,62.5 Z"/></g>
<g><path style="opacity:0.129" fill="#fefffe" d="M 251.5,64.5 C 253.337,64.6395 253.67,65.3061 252.5,66.5C 251.702,66.0431 251.369,65.3764 251.5,64.5 Z"/></g>
<g><path style="opacity:0.49" fill="#fefffe" d="M 100.5,69.5 C 99.8333,68.1667 99.8333,68.1667 100.5,69.5 Z"/></g>
<g><path style="opacity:0.145" fill="#fefffe" d="M 221.5,68.5 C 222.833,69.1667 222.833,69.1667 221.5,68.5 Z"/></g>
<g><path style="opacity:0.761" fill="#fefffe" d="M 100.5,69.5 C 102.933,70.5477 102.933,71.2144 100.5,71.5C 100.5,70.8333 100.5,70.1667 100.5,69.5 Z"/></g>
<g><path style="opacity:0.145" fill="#fefffe" d="M 211.5,78.5 C 212.833,79.1667 212.833,79.1667 211.5,78.5 Z"/></g>
<g><path style="opacity:0.102" fill="#fefffe" d="M 200.5,83.5 C 200.897,82.475 201.563,82.3083 202.5,83C 201.906,83.4643 201.239,83.631 200.5,83.5 Z"/></g>
<g><path style="opacity:0.102" fill="#fefffe" d="M 238.5,85.5 C 239.833,86.1667 239.833,86.1667 238.5,85.5 Z"/></g>
<g><path style="opacity:0.455" fill="#fefffe" d="M 238.5,100.5 C 239.833,101.167 239.833,101.167 238.5,100.5 Z"/></g>
<g><path style="opacity:0.968" fill="#fefffe" d="M 762.5,126.5 C 762.33,127.822 762.663,128.989 763.5,130C 761.892,130.658 760.725,130.158 760,128.5C 759,130.833 758,133.167 757,135.5C 754.484,137.311 752.484,139.644 751,142.5C 750.316,143.784 750.483,144.951 751.5,146C 750.552,146.483 749.552,146.649 748.5,146.5C 743.147,157.051 736.314,166.718 728,175.5C 727.667,177.5 727.333,179.5 727,181.5C 725.333,182.5 724,183.833 723,185.5C 722.667,185.167 722.333,184.833 722,184.5C 719.824,189.343 716.324,192.843 711.5,195C 711.833,195.333 712.167,195.667 712.5,196C 707.773,199.395 704.607,203.895 703,209.5C 702.667,209.167 702.333,208.833 702,208.5C 700.046,210.596 698.379,212.93 697,215.5C 695.16,214.167 694.66,214.334 695.5,216C 691.884,218.11 689.218,220.944 687.5,224.5C 682.841,225.826 679.841,228.826 678.5,233.5C 676.394,235.282 674.061,236.615 671.5,237.5C 671.5,238.833 671.5,240.167 671.5,241.5C 668.002,241.478 666.669,242.978 667.5,246C 665.714,246.785 664.214,247.951 663,249.5C 662.667,249.167 662.333,248.833 662,248.5C 661.138,250.087 660.471,251.754 660,253.5C 657.13,252.81 655.463,254.143 655,257.5C 652.743,259.046 650.576,260.712 648.5,262.5C 646.014,266.801 643.514,271.135 641,275.5C 641.322,278.493 641.489,281.326 641.5,284C 639.475,285.194 639.141,286.694 640.5,288.5C 637.968,292.106 637.968,295.606 640.5,299C 640.53,302.639 640.196,306.306 639.5,310C 640.5,310.333 641.5,310.667 642.5,311C 644.818,313.597 647.318,316.097 650,318.5C 651.459,315.557 653.126,315.224 655,317.5C 658.32,316.832 661.487,315.665 664.5,314C 664.167,313.667 663.833,313.333 663.5,313C 666.29,312.439 668.623,311.106 670.5,309C 673.698,308.152 676.531,306.652 679,304.5C 679.333,304.833 679.667,305.167 680,305.5C 680.483,304.552 680.649,303.552 680.5,302.5C 682.331,303.052 683.997,303.052 685.5,302.5C 684.418,299.539 684.418,296.539 685.5,293.5C 688.216,285.551 691.216,277.051 694.5,268C 694.167,267.667 693.833,267.333 693.5,267C 696.606,261.72 699.939,256.553 703.5,251.5C 710.862,244.469 717.529,236.802 723.5,228.5C 729.208,222.139 735.541,216.472 742.5,211.5C 759.266,202.083 770.266,206.416 775.5,224.5C 775.439,227.903 774.939,231.236 774,234.5C 770.795,241.691 766.795,248.358 762,254.5C 760.735,257.461 759.569,260.461 758.5,263.5C 755.111,266.418 752.277,270.418 750,275.5C 739.098,285.498 728.431,295.165 718,304.5C 713.03,310.927 714.53,315.427 722.5,318C 733.978,319.366 743.645,315.866 751.5,307.5C 755.52,307.32 758.687,305.654 761,302.5C 763.414,302.487 765.914,302.82 768.5,303.5C 769.406,305.386 770.406,307.22 771.5,309C 770.167,310.333 770.167,311.667 771.5,313C 769.395,314.335 768.729,316.002 769.5,318C 764.636,322.707 759.636,327.874 754.5,333.5C 753.453,335.151 752.286,336.817 751,338.5C 750.333,335.833 749.667,335.833 749,338.5C 748.667,338.167 748.333,337.833 748,337.5C 740.808,341.757 732.975,343.757 724.5,343.5C 720.657,343.073 716.99,343.073 713.5,343.5C 712.065,341.599 710.398,341.266 708.5,342.5C 707.304,342.154 707.304,341.654 708.5,341C 703.421,340.155 700.087,337.321 698.5,332.5C 697.893,332.624 697.56,332.957 697.5,333.5C 695.259,332.7 694.259,331.034 694.5,328.5C 692.833,328.5 691.167,328.5 689.5,328.5C 689.884,326.335 689.217,324.668 687.5,323.5C 685.145,324.522 683.478,326.188 682.5,328.5C 678.835,329.748 675.335,331.415 672,333.5C 670.853,332.542 669.853,332.875 669,334.5C 668.667,334.167 668.333,333.833 668,333.5C 660.873,336.354 653.706,339.021 646.5,341.5C 641.375,341.472 636.375,340.139 631.5,337.5C 630.289,336.28 630.289,335.113 631.5,334C 630.451,333.508 629.451,333.674 628.5,334.5C 622.738,330.976 619.405,326.143 618.5,320C 617.5,319.167 616.5,318.333 615.5,317.5C 614.859,312.068 615.526,306.735 617.5,301.5C 617.458,298.741 616.958,296.075 616,293.5C 603.249,306.321 588.416,316.987 571.5,325.5C 570.914,325.291 570.414,324.957 570,324.5C 566.096,327.878 560.929,330.045 554.5,331C 552.463,333.189 549.963,334.689 547,335.5C 539.593,334.984 532.26,333.984 525,332.5C 518.815,334.613 512.649,335.78 506.5,336C 507.451,336.718 507.617,337.551 507,338.5C 506,337.833 505,337.167 504,336.5C 503.71,338.92 503.21,341.254 502.5,343.5C 501.086,345.044 500.753,346.711 501.5,348.5C 500.672,349.415 499.672,350.081 498.5,350.5C 497.697,353.244 496.697,355.911 495.5,358.5C 495.68,359.554 496.013,360.554 496.5,361.5C 494.815,364.295 493.649,367.295 493,370.5C 492.667,370.167 492.333,369.833 492,369.5C 491.548,372.149 490.714,374.649 489.5,377C 489.848,379.055 489.181,381.055 487.5,383C 488.022,383.561 488.355,384.228 488.5,385C 488.117,387.964 487.117,390.63 485.5,393C 485.957,393.414 486.291,393.914 486.5,394.5C 484.881,397.188 483.547,400.021 482.5,403C 483.357,403.689 484.023,404.522 484.5,405.5C 482.638,409.971 481.471,414.638 481,419.5C 477.525,421.146 474.358,423.146 471.5,425.5C 471.167,425.5 470.833,425.5 470.5,425.5C 469.63,423.401 468.297,423.068 466.5,424.5C 461.018,422.319 458.351,418.153 458.5,412C 459,410.5 459.5,409 460,407.5C 460.333,407.833 460.667,408.167 461,408.5C 461.626,406.287 461.459,404.12 460.5,402C 464.663,389.636 468.997,377.803 473.5,366.5C 470.869,364.995 471.203,364.329 474.5,364.5C 474.5,363.167 474.5,361.833 474.5,360.5C 475.766,358.306 475.766,355.972 474.5,353.5C 475.5,352.833 476.5,352.167 477.5,351.5C 475.934,352.061 474.601,351.394 473.5,349.5C 473.938,348.494 474.604,348.494 475.5,349.5C 476.386,348.675 476.719,347.675 476.5,346.5C 477.552,346.649 478.552,346.483 479.5,346C 479.545,342.865 479.545,339.698 479.5,336.5C 479.846,335.304 480.346,335.304 481,336.5C 481.273,334.671 482.107,333.171 483.5,332C 481.905,332.617 480.572,332.284 479.5,331C 481.774,330.53 483.774,329.53 485.5,328C 484.934,327.005 484.267,326.172 483.5,325.5C 485.42,324.179 485.587,322.846 484,321.5C 482.686,322.313 481.519,323.313 480.5,324.5C 478.775,322.908 477.775,323.242 477.5,325.5C 476.069,325.881 475.236,326.881 475,328.5C 474.667,328.167 474.333,327.833 474,327.5C 473.517,328.448 473.351,329.448 473.5,330.5C 471.5,330.5 469.5,330.5 467.5,330.5C 467.5,331.833 467.5,333.167 467.5,334.5C 466.448,334.351 465.448,334.517 464.5,335C 461.719,339.095 458.385,342.595 454.5,345.5C 452.83,345.751 451.33,346.418 450,347.5C 448.221,346.521 446.555,346.854 445,348.5C 443.701,348.034 442.201,348.034 440.5,348.5C 440.824,345.32 439.49,344.153 436.5,345C 437.956,345.423 438.456,346.256 438,347.5C 436.542,346.253 435.042,346.253 433.5,347.5C 432.295,345.862 430.962,345.529 429.5,346.5C 426.5,344.833 424.167,342.5 422.5,339.5C 420.922,338.702 419.256,338.202 417.5,338C 420.223,334.224 419.89,330.724 416.5,327.5C 414.127,326.622 413.294,324.955 414,322.5C 414.333,323.167 414.667,323.833 415,324.5C 415.309,323.234 415.809,322.067 416.5,321C 415.627,313.96 415.294,306.96 415.5,300C 418.17,298.164 419.837,295.664 420.5,292.5C 423.062,288.71 423.728,284.877 422.5,281C 424.412,276.853 425.912,272.686 427,268.5C 430.917,264.883 433.417,260.883 434.5,256.5C 434.192,255.692 433.692,255.025 433,254.5C 432.149,257.612 430.983,257.946 429.5,255.5C 427.729,256.035 427.396,256.869 428.5,258C 427.552,258.483 426.552,258.649 425.5,258.5C 425.219,260.963 424.219,263.13 422.5,265C 422.833,265.333 423.167,265.667 423.5,266C 421.598,267.771 419.765,269.605 418,271.5C 415.685,277.463 412.852,283.13 409.5,288.5C 410.167,288.833 410.833,289.167 411.5,289.5C 408.531,291.9 405.864,293.9 403.5,295.5C 403.833,296.167 404.167,296.833 404.5,297.5C 402.57,300.872 401.404,304.539 401,308.5C 400.667,307.833 400.333,307.167 400,306.5C 399.316,307.784 399.483,308.951 400.5,310C 399.027,310.71 398.36,311.876 398.5,313.5C 395.768,315.035 393.102,316.869 390.5,319C 388.273,319.121 386.44,319.954 385,321.5C 383.984,320.366 383.317,320.699 383,322.5C 381.796,321.529 381.296,320.529 381.5,319.5C 380.749,320.376 380.249,321.376 380,322.5C 378.445,320.854 376.779,320.521 375,321.5C 374.088,318.802 372.421,316.135 370,313.5C 368.719,313.381 367.552,313.881 366.5,315C 366.833,315.333 367.167,315.667 367.5,316C 366.619,316.708 365.953,317.542 365.5,318.5C 363.557,319.078 363.223,320.078 364.5,321.5C 364.154,322.696 363.654,322.696 363,321.5C 361.804,326.288 360.304,330.955 358.5,335.5C 356.105,334.477 355.105,335.477 355.5,338.5C 352.031,340.681 348.197,342.347 344,343.5C 337.872,341.911 333.538,338.245 331,332.5C 330.259,333.641 329.425,333.641 328.5,332.5C 327.756,333.991 327.09,335.491 326.5,337C 326.833,337.333 327.167,337.667 327.5,338C 325.671,338.273 324.171,339.107 323,340.5C 320.066,344.712 316.899,348.712 313.5,352.5C 311.126,353.27 308.459,354.437 305.5,356C 301.775,356.76 298.108,356.593 294.5,355.5C 292.866,355.968 291.7,356.968 291,358.5C 290.517,357.552 290.351,356.552 290.5,355.5C 289.178,355.67 288.011,355.337 287,354.5C 286.536,355.094 286.369,355.761 286.5,356.5C 284.23,357.125 283.896,356.125 285.5,353.5C 282.006,351.586 278.672,349.419 275.5,347C 275.833,346.667 276.167,346.333 276.5,346C 272.473,341.637 268.807,336.971 265.5,332C 265.945,329.328 265.111,326.828 263,324.5C 261.463,319.18 261.63,313.847 263.5,308.5C 263.291,307.914 262.957,307.414 262.5,307C 265.129,299.5 267.462,291.833 269.5,284C 269.355,283.228 269.022,282.561 268.5,282C 269.833,281 271.167,280 272.5,279C 272.167,278.667 271.833,278.333 271.5,278C 277.102,266.539 281.935,254.706 286,242.5C 290.266,234.983 294.432,226.983 298.5,218.5C 304.381,212.408 311.381,210.575 319.5,213C 322.57,215.427 324.404,218.594 325,222.5C 326.099,219.956 327.265,219.956 328.5,222.5C 327.471,222.296 326.471,222.796 325.5,224C 325.957,224.414 326.291,224.914 326.5,225.5C 325.228,228.382 323.895,231.215 322.5,234C 322.833,234.333 323.167,234.667 323.5,235C 317.031,241.338 312.197,248.838 309,257.5C 305.749,261.422 301.916,264.588 297.5,267C 297.833,267.333 298.167,267.667 298.5,268C 295.19,274.12 292.024,280.286 289,286.5C 288.605,288.179 288.772,289.845 289.5,291.5C 287.714,294.63 286.381,297.964 285.5,301.5C 285.728,306.631 285.728,311.465 285.5,316C 286.416,316.374 287.25,316.874 288,317.5C 290.462,325.834 295.962,329.001 304.5,327C 316.09,311.794 327.09,295.627 337.5,278.5C 336.45,276.898 337.117,276.065 339.5,276C 339.043,275.586 338.709,275.086 338.5,274.5C 341.218,269.427 344.218,264.593 347.5,260C 347.043,259.586 346.709,259.086 346.5,258.5C 350.45,252.303 353.284,246.303 355,240.5C 354.115,233.887 355.948,227.72 360.5,222C 360.167,221.667 359.833,221.333 359.5,221C 362.631,219.039 365.631,216.873 368.5,214.5C 372.098,214.094 375.765,214.594 379.5,216C 385.932,219.699 388.432,225.199 387,232.5C 385.176,236.546 382.676,239.88 379.5,242.5C 378.903,242.735 378.57,243.235 378.5,244C 378.892,245.011 379.559,245.511 380.5,245.5C 380.023,246.478 379.357,247.311 378.5,248C 379.333,248.833 380.167,249.667 381,250.5C 384.98,243.241 389.147,235.574 393.5,227.5C 394.558,224.603 396.558,222.436 399.5,221C 398.137,218.871 398.471,218.371 400.5,219.5C 410.085,214.637 417.585,216.97 423,226.5C 426.003,225.358 428.503,223.024 430.5,219.5C 433.834,218.169 436.834,216.335 439.5,214C 449.09,211.573 456.257,214.739 461,223.5C 462.517,229.08 462.851,234.747 462,240.5C 458.849,249.122 456.349,257.789 454.5,266.5C 454.157,264.775 453.157,264.275 451.5,265C 451.833,265.333 452.167,265.667 452.5,266C 451.484,266.519 450.818,267.353 450.5,268.5C 449.056,274.427 447.389,279.927 445.5,285C 446.33,286.465 446.496,287.965 446,289.5C 445.667,288.833 445.333,288.167 445,287.5C 442.515,295.875 440.681,304.042 439.5,312C 439.844,313.365 440.511,314.532 441.5,315.5C 441.291,316.086 440.957,316.586 440.5,317C 442.076,316.848 443.409,316.015 444.5,314.5C 445.944,315.981 446.611,315.648 446.5,313.5C 448.144,313.286 449.644,313.62 451,314.5C 453.684,311.564 456.851,310.564 460.5,311.5C 463.612,310.649 463.946,309.483 461.5,308C 469.962,303.018 477.795,297.185 485,290.5C 487.092,284.939 490.259,280.106 494.5,276C 494.167,275 493.833,274 493.5,273C 499.868,270.791 503.535,266.291 504.5,259.5C 509.129,250.866 513.129,242.199 516.5,233.5C 515.833,232.5 515.167,231.5 514.5,230.5C 515.52,224.108 517.52,218.108 520.5,212.5C 523.187,211.664 525.52,210.164 527.5,208C 533.304,206.776 538.638,207.776 543.5,211C 545.656,214.386 547.323,218.053 548.5,222C 548.561,223.711 547.894,225.044 546.5,226C 547.667,226.5 548.5,227.333 549,228.5C 549.465,227.069 550.299,225.903 551.5,225C 557.327,221.92 562.994,218.587 568.5,215C 569.549,214.508 570.549,214.674 571.5,215.5C 572.941,214.696 574.441,214.029 576,213.5C 582.814,213.809 588.481,216.809 593,222.5C 593.062,225.945 593.895,229.278 595.5,232.5C 593.549,237.305 592.382,242.305 592,247.5C 588.415,252.332 585.582,257.665 583.5,263.5C 577.28,270.88 571.28,278.38 565.5,286C 565.957,286.414 566.291,286.914 566.5,287.5C 564.954,288.684 563.287,289.684 561.5,290.5C 558.356,295.478 554.356,299.645 549.5,303C 551.363,304.418 551.863,306.251 551,308.5C 550,307.5 549,306.5 548,305.5C 545.476,306.676 543.976,308.176 543.5,310C 547.132,310.991 550.799,311.825 554.5,312.5C 559.216,311.264 563.55,309.264 567.5,306.5C 582.135,300.186 595.469,291.853 607.5,281.5C 611.859,275.461 616.693,269.795 622,264.5C 623.223,260.385 625.223,256.718 628,253.5C 631.259,245.304 634.259,236.971 637,228.5C 640.484,222.368 644.151,216.368 648,210.5C 649.651,208.598 649.984,206.598 649,204.5C 650.364,205.258 651.531,204.758 652.5,203C 651.396,201.869 651.729,201.035 653.5,200.5C 654.452,198.955 654.785,197.288 654.5,195.5C 655.5,195.5 656.5,195.5 657.5,195.5C 657.768,193.901 657.434,192.568 656.5,191.5C 658.001,187.169 660.501,183.502 664,180.5C 664.414,180.957 664.914,181.291 665.5,181.5C 673.344,168.655 682.677,156.988 693.5,146.5C 694.522,143.559 695.355,140.559 696,137.5C 697.667,136.267 699.167,134.933 700.5,133.5C 702.233,132.992 702.566,132.159 701.5,131C 702.938,130.781 704.271,130.281 705.5,129.5C 706.641,128.575 706.641,127.741 705.5,127C 708.378,124.957 710.711,122.457 712.5,119.5C 715.272,117.168 716.939,114.168 717.5,110.5C 718.791,110.737 719.791,110.404 720.5,109.5C 725.623,105.893 731.123,102.893 737,100.5C 739.638,100.804 742.304,100.804 745,100.5C 753.103,102.275 758.77,106.941 762,114.5C 762.893,113.289 763.726,113.289 764.5,114.5C 762.255,118.463 761.588,122.463 762.5,126.5 Z M 726.5,139.5 C 727.224,141.218 727.891,143.052 728.5,145C 726.098,147.671 724.098,150.505 722.5,153.5C 719.703,159.467 715.203,163.467 709,165.5C 706.056,171.468 703.056,177.468 700,183.5C 699.092,185.439 697.592,186.439 695.5,186.5C 695.414,187.496 695.748,188.329 696.5,189C 687.81,197.09 679.976,205.923 673,215.5C 670.877,218.97 669.71,218.97 669.5,215.5C 668.883,215.611 668.383,215.944 668,216.5C 668.046,218.313 667.88,219.979 667.5,221.5C 666.311,222.429 664.978,222.762 663.5,222.5C 662.803,227.05 660.303,230.383 656,232.5C 655.833,231.667 655.667,230.833 655.5,230C 657.807,224.504 660.807,219.337 664.5,214.5C 664.291,213.914 663.957,213.414 663.5,213C 666.67,209.85 669.67,206.517 672.5,203C 672.167,202.667 671.833,202.333 671.5,202C 673.5,199.667 675.5,197.333 677.5,195C 677.167,194.667 676.833,194.333 676.5,194C 677.984,192.426 679.651,191.093 681.5,190C 681.167,189.667 680.833,189.333 680.5,189C 682.11,187.892 683.777,187.392 685.5,187.5C 683.372,186.719 683.205,185.719 685,184.5C 686.049,185.517 687.216,185.684 688.5,185C 688.869,182.448 688.869,179.781 688.5,177C 689.667,175.5 690.833,174 692,172.5C 692.333,173.167 692.667,173.833 693,174.5C 693.645,173.354 694.478,172.354 695.5,171.5C 694.54,170.188 694.706,168.854 696,167.5C 697.613,168.622 698.78,168.122 699.5,166C 699.209,164.042 700.209,162.542 702.5,161.5C 705.525,157.379 709.358,154.045 714,151.5C 714.566,149.277 715.4,147.277 716.5,145.5C 721.171,139.857 726.505,134.857 732.5,130.5C 733.672,130.919 734.672,131.585 735.5,132.5C 734.218,134.179 733.218,136.013 732.5,138C 731.833,138.667 731.167,138.667 730.5,138C 732.26,137.035 732.594,135.868 731.5,134.5C 729.1,135.018 727.1,136.185 725.5,138C 726.056,138.383 726.389,138.883 726.5,139.5 Z M 734.5,249.5 C 735.686,251.194 735.519,252.861 734,254.5C 731.577,257.249 729.577,260.249 728,263.5C 726.871,265.141 725.371,266.141 723.5,266.5C 722.393,269.369 720.393,271.369 717.5,272.5C 716.702,272.043 716.369,271.376 716.5,270.5C 714.626,272.095 713.793,271.761 714,269.5C 715.579,267.959 717.413,266.792 719.5,266C 718.72,264.927 718.887,263.76 720,262.5C 721.75,260.576 723.583,258.909 725.5,257.5C 725.828,254.996 727.162,253.162 729.5,252C 729.167,251.667 728.833,251.333 728.5,251C 732.025,248.137 735.525,245.303 739,242.5C 740.628,243.819 740.461,245.152 738.5,246.5C 736.471,245.371 736.137,245.871 737.5,248C 736.756,249.039 735.756,249.539 734.5,249.5 Z M 522.5,299.5 C 521.749,300.573 520.749,300.74 519.5,300C 520.437,297.293 521.77,294.793 523.5,292.5C 523.291,291.914 522.957,291.414 522.5,291C 527.104,282.293 531.604,273.46 536,264.5C 543.17,256.512 551.67,250.179 561.5,245.5C 563.396,244.534 565.396,244.201 567.5,244.5C 564.056,253.482 559.056,261.649 552.5,269C 552.833,269.333 553.167,269.667 553.5,270C 548.871,275.636 544.204,281.302 539.5,287C 533.979,291.353 528.312,295.519 522.5,299.5 Z M 377.5,250.5 C 379.646,250.696 379.812,251.696 378,253.5C 377.517,252.552 377.351,251.552 377.5,250.5 Z"/></g>
<g><path style="opacity:0.427" fill="#fefffe" d="M 238.5,101.5 C 237.833,102.167 237.833,102.167 238.5,101.5 Z"/></g>
<g><path style="opacity:0.071" fill="#fefffe" d="M 720.5,109.5 C 719.833,108.167 719.833,108.167 720.5,109.5 Z"/></g>
<g><path style="opacity:0.051" fill="#fefffe" d="M 138.5,110.5 C 138.897,109.475 139.563,109.308 140.5,110C 139.906,110.464 139.239,110.631 138.5,110.5 Z"/></g>
<g><path style="opacity:0.139" fill="#fefffe" d="M 149.5,109.5 C 150.525,109.897 150.692,110.563 150,111.5C 149.536,110.906 149.369,110.239 149.5,109.5 Z"/></g>
<g><path style="opacity:0.373" fill="#fefffe" d="M 125.5,114.5 C 126.833,115.167 126.833,115.167 125.5,114.5 Z"/></g>
<g><path style="opacity:0.02" fill="#fefffe" d="M 208.5,114.5 C 209.833,115.167 209.833,115.167 208.5,114.5 Z"/></g>
<g><path style="opacity:0.004" fill="#fefffe" d="M 214.5,114.5 C 215.833,115.167 215.833,115.167 214.5,114.5 Z"/></g>
<g><path style="opacity:0.008" fill="#fefffe" d="M 212.5,116.5 C 213.833,117.167 213.833,117.167 212.5,116.5 Z"/></g>
<g><path style="opacity:0.078" fill="#fefffe" d="M 207.5,117.5 C 208.833,118.167 208.833,118.167 207.5,117.5 Z"/></g>
<g><path style="opacity:0.318" fill="#fefffe" d="M 126.5,118.5 C 127.525,118.897 127.692,119.563 127,120.5C 126.536,119.906 126.369,119.239 126.5,118.5 Z"/></g>
<g><path style="opacity:0.133" fill="#fefffe" d="M 712.5,119.5 C 711.833,118.167 711.833,118.167 712.5,119.5 Z"/></g>
<g><path style="opacity:0.102" fill="#fefffe" d="M 207.5,120.5 C 208.833,121.167 208.833,121.167 207.5,120.5 Z"/></g>
<g><path style="opacity:0.039" fill="#fefffe" d="M 207.5,121.5 C 206.833,122.167 206.833,122.167 207.5,121.5 Z"/></g>
<g><path style="opacity:0.249" fill="#fefffe" d="M 141.5,122.5 C 143.337,122.639 143.67,123.306 142.5,124.5C 141.702,124.043 141.369,123.376 141.5,122.5 Z"/></g>
<g><path style="opacity:0.075" fill="#fefffe" d="M 762.5,126.5 C 762.343,125.127 762.51,123.793 763,122.5C 763.765,124.066 763.598,125.399 762.5,126.5 Z"/></g>
<g><path style="opacity:0.065" fill="#fefffe" d="M 321.5,124.5 C 321.897,123.475 322.563,123.308 323.5,124C 322.906,124.464 322.239,124.631 321.5,124.5 Z"/></g>
<g><path style="opacity:0.11" fill="#fefffe" d="M 195.5,125.5 C 196.833,126.167 196.833,126.167 195.5,125.5 Z"/></g>
<g><path style="opacity:0.208" fill="#fefffe" d="M 142.5,130.5 C 143.833,131.167 143.833,131.167 142.5,130.5 Z"/></g>
<g><path style="opacity:0.95" fill="#fefffe" d="M 319.5,130.5 C 324.179,130.334 328.845,130.501 333.5,131C 336.478,133.978 339.478,136.978 342.5,140C 344.851,145.446 345.017,150.946 343,156.5C 329.832,166.229 319.332,163.062 311.5,147C 312.007,144.459 312.674,141.959 313.5,139.5C 316.689,136.766 318.689,133.766 319.5,130.5 Z"/></g>
<g><path style="opacity:0.094" fill="#fefffe" d="M 700.5,133.5 C 699.833,132.167 699.833,132.167 700.5,133.5 Z"/></g>
<g><path style="opacity:0.2" fill="#fefffe" d="M 144.5,138.5 C 144.897,137.475 145.563,137.308 146.5,138C 145.906,138.464 145.239,138.631 144.5,138.5 Z"/></g>
<g><path style="opacity:0.501" fill="#fefffe" d="M 726.5,139.5 C 726.5,141.5 725.5,142.5 723.5,142.5C 723.5,140.5 724.5,139.5 726.5,139.5 Z"/></g>
<g><path style="opacity:0.235" fill="#fefffe" d="M 110.5,151.5 C 111.833,152.167 111.833,152.167 110.5,151.5 Z"/></g>
<g><path style="opacity:0.217" fill="#fefffe" d="M 111.5,154.5 C 112.289,154.783 112.956,155.283 113.5,156C 112.184,156.528 111.517,156.028 111.5,154.5 Z"/></g>
<g><path style="opacity:0.047" fill="#fefffe" d="M 168.5,160.5 C 169.833,161.167 169.833,161.167 168.5,160.5 Z"/></g>
<g><path style="opacity:0.071" fill="#fefffe" d="M 188.5,174.5 C 189.833,175.167 189.833,175.167 188.5,174.5 Z"/></g>
<g><path style="opacity:0.131" fill="#fefffe" d="M 728.5,178.5 C 729.251,177.427 730.251,177.26 731.5,178C 730.552,178.483 729.552,178.649 728.5,178.5 Z"/></g>
<g><path style="opacity:0.294" fill="#fefffe" d="M 194.5,178.5 C 195.833,179.167 195.833,179.167 194.5,178.5 Z"/></g>
<g><path style="opacity:0.063" fill="#fefffe" d="M 659.5,182.5 C 660.833,183.167 660.833,183.167 659.5,182.5 Z"/></g>
<g><path style="opacity:0.629" fill="#fefffe" d="M 695.5,186.5 C 691.867,186.557 691.7,185.557 695,183.5C 695.483,184.448 695.649,185.448 695.5,186.5 Z"/></g>
<g><path style="opacity:0.024" fill="#fefffe" d="M 335.5,189.5 C 336.833,190.167 336.833,190.167 335.5,189.5 Z"/></g>
<g><path style="opacity:0.407" fill="#fefffe" d="M 335.5,191.5 C 336.239,191.369 336.906,191.536 337.5,192C 336.167,192.667 336.167,193.333 337.5,194C 336.5,194.667 335.5,194.667 334.5,194C 335.252,193.329 335.586,192.496 335.5,191.5 Z"/></g>
<g><path style="opacity:0.167" fill="#fefffe" d="M 656.5,191.5 C 656.631,192.239 656.464,192.906 656,193.5C 655.308,192.563 655.475,191.897 656.5,191.5 Z"/></g>
<g><path style="opacity:0.02" fill="#fefffe" d="M 801.5,194.5 C 802.251,193.427 803.251,193.26 804.5,194C 803.552,194.483 802.552,194.649 801.5,194.5 Z"/></g>
<g><path style="opacity:0.835" fill="#fefffe" d="M 544.5,194.5 C 545.525,194.897 545.692,195.563 545,196.5C 544.536,195.906 544.369,195.239 544.5,194.5 Z"/></g>
<g><path style="opacity:0.014" fill="#fefffe" d="M 759.5,195.5 C 761.966,194.366 764.633,194.199 767.5,195C 764.854,195.497 762.187,195.664 759.5,195.5 Z"/></g>
<g><path style="opacity:0.016" fill="#fefffe" d="M 775.5,194.5 C 776.833,195.167 776.833,195.167 775.5,194.5 Z"/></g>
<g><path style="opacity:0.157" fill="#fefffe" d="M 334.5,195.5 C 335.525,195.897 335.692,196.563 335,197.5C 334.536,196.906 334.369,196.239 334.5,195.5 Z"/></g>
<g><path style="opacity:0.039" fill="#fefffe" d="M 714.5,197.5 C 714.897,196.475 715.563,196.308 716.5,197C 715.906,197.464 715.239,197.631 714.5,197.5 Z"/></g>
<g><path style="opacity:0.114" fill="#fefffe" d="M 546.5,197.5 C 547.833,198.167 547.833,198.167 546.5,197.5 Z"/></g>
<g><path style="opacity:0.464" fill="#fefffe" d="M 334.5,198.5 C 335.653,199.313 335.653,200.313 334.5,201.5C 333.635,202.583 332.635,202.749 331.5,202C 333.056,201.28 334.056,200.113 334.5,198.5 Z"/></g>
<g><path style="opacity:0.047" fill="#fefffe" d="M 178.5,199.5 C 177.833,200.167 177.833,200.167 178.5,199.5 Z"/></g>
<g><path style="opacity:0.614" fill="#fefffe" d="M 678.5,200.5 C 678.483,202.028 677.816,202.528 676.5,202C 677.044,201.283 677.711,200.783 678.5,200.5 Z"/></g>
<g><path style="opacity:0.039" fill="#fefffe" d="M 710.5,200.5 C 711.833,201.167 711.833,201.167 710.5,200.5 Z"/></g>
<g><path style="opacity:0.129" fill="#fefffe" d="M 710.5,202.5 C 711.833,203.167 711.833,203.167 710.5,202.5 Z"/></g>
<g><path style="opacity:0.821" fill="#fefffe" d="M 331.5,203.5 C 334.001,203.511 334.168,204.178 332,205.5C 331.536,204.906 331.369,204.239 331.5,203.5 Z"/></g>
<g><path style="opacity:0.546" fill="#fefffe" d="M 675.5,203.5 C 676.043,203.56 676.376,203.893 676.5,204.5C 675.5,205.833 674.5,207.167 673.5,208.5C 673.167,208.167 672.833,207.833 672.5,207.5C 673.524,206.148 674.524,204.815 675.5,203.5 Z"/></g>
<g><path style="opacity:0.31" fill="#fefffe" d="M 187.5,205.5 C 188.833,206.167 188.833,206.167 187.5,205.5 Z"/></g>
<g><path style="opacity:0.078" fill="#fefffe" d="M 519.5,205.5 C 520.833,206.167 520.833,206.167 519.5,205.5 Z"/></g>
<g><path style="opacity:0.02" fill="#fefffe" d="M 704.5,205.5 C 705.833,206.167 705.833,206.167 704.5,205.5 Z"/></g>
<g><path style="opacity:0.659" fill="#fefffe" d="M 331.5,207.5 C 330.833,206.167 330.833,206.167 331.5,207.5 Z"/></g>
<g><path style="opacity:0.157" fill="#fefffe" d="M 189.5,207.5 C 190.833,208.167 190.833,208.167 189.5,207.5 Z"/></g>
<g><path style="opacity:0.275" fill="#fefffe" d="M 331.5,207.5 C 332.833,208.167 332.833,208.167 331.5,207.5 Z"/></g>
<g><path style="opacity:0.267" fill="#fefffe" d="M 328.5,210.5 C 329.833,211.167 329.833,211.167 328.5,210.5 Z"/></g>
<g><path style="opacity:0.588" fill="#fefffe" d="M 669.5,214.5 C 668.133,212.907 668.466,211.574 670.5,210.5C 670.833,210.667 671.167,210.833 671.5,211C 670.695,212.113 670.028,213.279 669.5,214.5 Z"/></g>
<g><path style="opacity:0.031" fill="#fefffe" d="M 190.5,211.5 C 191.833,212.167 191.833,212.167 190.5,211.5 Z"/></g>
<g><path style="opacity:0.059" fill="#fefffe" d="M 328.5,213.5 C 327.833,212.167 327.833,212.167 328.5,213.5 Z"/></g>
<g><path style="opacity:0.631" fill="#fefffe" d="M 187.5,215.5 C 187.511,212.999 188.178,212.832 189.5,215C 188.906,215.464 188.239,215.631 187.5,215.5 Z"/></g>
<g><path style="opacity:0.329" fill="#fefffe" d="M 328.5,213.5 C 329.833,214.167 329.833,214.167 328.5,213.5 Z"/></g>
<g><path style="opacity:0.02" fill="#fefffe" d="M 453.5,213.5 C 454.833,214.167 454.833,214.167 453.5,213.5 Z"/></g>
<g><path style="opacity:0.2" fill="#fefffe" d="M 518.5,213.5 C 519.833,214.167 519.833,214.167 518.5,213.5 Z"/></g>
<g><path style="opacity:0.996" fill="#fefffe" d="M 187.5,215.5 C 186.833,216.167 186.833,216.167 187.5,215.5 Z"/></g>
<g><path style="opacity:0.086" fill="#fefffe" d="M 189.5,217.5 C 190.833,218.167 190.833,218.167 189.5,217.5 Z"/></g>
<g><path style="opacity:0.09" fill="#fefffe" d="M 329.5,218.5 C 330.833,219.167 330.833,219.167 329.5,218.5 Z"/></g>
<g><path style="opacity:0.256" fill="#fefffe" d="M 185.5,221.5 C 187.76,222.238 187.927,223.238 186,224.5C 185.517,223.552 185.351,222.552 185.5,221.5 Z"/></g>
<g><path style="opacity:0.053" fill="#fefffe" d="M 687.5,224.5 C 689.203,223.34 689.869,224.007 689.5,226.5C 687.007,226.869 686.34,226.203 687.5,224.5 Z"/></g>
<g><path style="opacity:0.169" fill="#fefffe" d="M 393.5,227.5 C 392.833,226.167 392.833,226.167 393.5,227.5 Z"/></g>
<g><path style="opacity:0.024" fill="#fefffe" d="M 286.5,227.5 C 287.833,228.167 287.833,228.167 286.5,227.5 Z"/></g>
<g><path style="opacity:0.02" fill="#fefffe" d="M 685.5,227.5 C 686.833,228.167 686.833,228.167 685.5,227.5 Z"/></g>
<g><path style="opacity:0.016" fill="#fefffe" d="M 685.5,228.5 C 684.833,229.167 684.833,229.167 685.5,228.5 Z"/></g>
<g><path style="opacity:0.086" fill="#fefffe" d="M 682.5,229.5 C 683.833,230.167 683.833,230.167 682.5,229.5 Z"/></g>
<g><path style="opacity:0.583" fill="#fefffe" d="M 279.5,231.5 C 280.289,231.783 280.956,232.283 281.5,233C 280.184,233.528 279.517,233.028 279.5,231.5 Z"/></g>
<g><path style="opacity:0.071" fill="#fefffe" d="M 678.5,233.5 C 679.833,234.167 679.833,234.167 678.5,233.5 Z"/></g>
<g><path style="opacity:0.141" fill="#fefffe" d="M 511.5,236.5 C 512.833,237.167 512.833,237.167 511.5,236.5 Z"/></g>
<g><path style="opacity:0.482" fill="#fefffe" d="M 382.5,240.5 C 383.833,241.167 383.833,241.167 382.5,240.5 Z"/></g>
<g><path style="opacity:1" fill="#fefffe" d="M 379.5,242.5 C 380.833,243.167 380.833,243.167 379.5,242.5 Z"/></g>
<g><path style="opacity:0.656" fill="#fefffe" d="M 731.5,252.5 C 731.517,250.972 732.184,250.472 733.5,251C 732.956,251.717 732.289,252.217 731.5,252.5 Z"/></g>
<g><path style="opacity:0.02" fill="#fefffe" d="M 623.5,255.5 C 624.833,256.167 624.833,256.167 623.5,255.5 Z"/></g>
<g><path style="opacity:0.145" fill="#fefffe" d="M 504.5,259.5 C 503.833,258.167 503.833,258.167 504.5,259.5 Z"/></g>
<g><path style="opacity:0.059" fill="#fefffe" d="M 621.5,258.5 C 622.833,259.167 622.833,259.167 621.5,258.5 Z"/></g>
<g><path style="opacity:0.016" fill="#fefffe" d="M 586.5,261.5 C 587.833,262.167 587.833,262.167 586.5,261.5 Z"/></g>
<g><path style="opacity:0.043" fill="#fefffe" d="M 647.5,265.5 C 648.525,265.897 648.692,266.563 648,267.5C 647.536,266.906 647.369,266.239 647.5,265.5 Z"/></g>
<g><path style="opacity:0.158" fill="#fefffe" d="M 454.5,266.5 C 455.463,267.363 455.463,268.03 454.5,268.5C 453.227,267.743 453.227,267.077 454.5,266.5 Z"/></g>
<g><path style="opacity:0.125" fill="#fefffe" d="M 767.5,266.5 C 768.525,266.897 768.692,267.563 768,268.5C 767.536,267.906 767.369,267.239 767.5,266.5 Z"/></g>
<g><path style="opacity:0.796" fill="#fefffe" d="M 45.5,268.5 C 45.8966,267.475 46.5632,267.308 47.5,268C 46.9056,268.464 46.2389,268.631 45.5,268.5 Z"/></g>
<g><path style="opacity:0.043" fill="#fefffe" d="M 263.5,273.5 C 264.833,274.167 264.833,274.167 263.5,273.5 Z"/></g>
<g><path style="opacity:0.161" fill="#fefffe" d="M 254.5,274.5 C 255.833,275.167 255.833,275.167 254.5,274.5 Z"/></g>
<g><path style="opacity:0.973" fill="#fefffe" d="M 326.5,274.5 C 327.525,274.897 327.692,275.563 327,276.5C 326.536,275.906 326.369,275.239 326.5,274.5 Z"/></g>
<g><path style="opacity:0.227" fill="#fefffe" d="M 609.5,274.5 C 610.833,275.167 610.833,275.167 609.5,274.5 Z"/></g>
<g><path style="opacity:0.216" fill="#fefffe" d="M 488.5,275.5 C 489.833,276.167 489.833,276.167 488.5,275.5 Z"/></g>
<g><path style="opacity:0.616" fill="#fefffe" d="M 487.5,280.5 C 488.833,281.167 488.833,281.167 487.5,280.5 Z"/></g>
<g><path style="opacity:0.373" fill="#fefffe" d="M 792.5,280.5 C 793.289,280.783 793.956,281.283 794.5,282C 793.184,282.528 792.517,282.028 792.5,280.5 Z"/></g>
<g><path style="opacity:0.139" fill="#fefffe" d="M 807.5,280.5 C 807.5,280.833 807.5,281.167 807.5,281.5C 802.167,281.167 802.167,280.833 807.5,280.5 Z"/></g>
<g><path style="opacity:0.047" fill="#fefffe" d="M 570.5,281.5 C 571.833,282.167 571.833,282.167 570.5,281.5 Z"/></g>
<g><path style="opacity:0.02" fill="#fefffe" d="M 293.5,286.5 C 294.833,287.167 294.833,287.167 293.5,286.5 Z"/></g>
<g><path style="opacity:0.169" fill="#fefffe" d="M 266.5,287.5 C 267.833,288.167 267.833,288.167 266.5,287.5 Z"/></g>
<g><path style="opacity:0.016" fill="#fefffe" d="M 642.5,289.5 C 643.833,290.167 643.833,290.167 642.5,289.5 Z"/></g>
<g><path style="opacity:0.484" fill="#fefffe" d="M 642.5,290.5 C 644.628,291.281 644.795,292.281 643,293.5C 640.51,292.053 640.343,291.053 642.5,290.5 Z"/></g>
<g><path style="opacity:0.8" fill="#fefffe" d="M 420.5,292.5 C 419.833,291.167 419.833,291.167 420.5,292.5 Z"/></g>
<g><path style="opacity:0.063" fill="#fefffe" d="M 562.5,291.5 C 563.833,292.167 563.833,292.167 562.5,291.5 Z"/></g>
<g><path style="opacity:0.196" fill="#fefffe" d="M 562.5,292.5 C 561.833,293.167 561.833,293.167 562.5,292.5 Z"/></g>
<g><path style="opacity:0.31" fill="#fefffe" d="M 417.5,293.5 C 418.525,293.897 418.692,294.563 418,295.5C 417.536,294.906 417.369,294.239 417.5,293.5 Z"/></g>
<g><path style="opacity:0.275" fill="#fefffe" d="M 561.5,293.5 C 560.833,294.167 560.833,294.167 561.5,293.5 Z"/></g>
<g><path style="opacity:0.118" fill="#fefffe" d="M 640.5,293.5 C 641.833,294.167 641.833,294.167 640.5,293.5 Z"/></g>
<g><path style="opacity:0.027" fill="#fefffe" d="M 562.5,296.5 C 563.525,296.897 563.692,297.563 563,298.5C 562.536,297.906 562.369,297.239 562.5,296.5 Z"/></g>
<g><path style="opacity:0.061" fill="#fefffe" d="M 642.5,297.5 C 643.552,297.351 644.552,297.517 645.5,298C 644.333,298.5 643.5,299.333 643,300.5C 642.517,299.552 642.351,298.552 642.5,297.5 Z"/></g>
<g><path style="opacity:0.756" fill="#fefffe" d="M 615.5,298.5 C 616.598,299.601 616.765,300.934 616,302.5C 615.51,301.207 615.343,299.873 615.5,298.5 Z"/></g>
<g><path style="opacity:0.024" fill="#fefffe" d="M 287.5,299.5 C 288.833,300.167 288.833,300.167 287.5,299.5 Z"/></g>
<g><path style="opacity:0.055" fill="#fefffe" d="M 206.5,301.5 C 205.833,300.167 205.833,300.167 206.5,301.5 Z"/></g>
<g><path style="opacity:0.239" fill="#fefffe" d="M 554.5,300.5 C 555.525,300.897 555.692,301.563 555,302.5C 554.536,301.906 554.369,301.239 554.5,300.5 Z"/></g>
<g><path style="opacity:0.031" fill="#fefffe" d="M 682.5,300.5 C 683.833,301.167 683.833,301.167 682.5,300.5 Z"/></g>
<g><path style="opacity:0.043" fill="#fefffe" d="M 287.5,301.5 C 288.833,302.167 288.833,302.167 287.5,301.5 Z"/></g>
<g><path style="opacity:0.133" fill="#fefffe" d="M 610.5,301.5 C 611.833,302.167 611.833,302.167 610.5,301.5 Z"/></g>
<g><path style="opacity:0.102" fill="#fefffe" d="M 642.5,301.5 C 643.598,302.601 643.765,303.934 643,305.5C 642.51,304.207 642.343,302.873 642.5,301.5 Z"/></g>
<g><path style="opacity:0.027" fill="#fefffe" d="M 675.5,302.5 C 676.833,303.167 676.833,303.167 675.5,302.5 Z"/></g>
<g><path style="opacity:0.027" fill="#fefffe" d="M 608.5,303.5 C 609.833,304.167 609.833,304.167 608.5,303.5 Z"/></g>
<g><path style="opacity:0.2" fill="#fefffe" d="M 615.5,303.5 C 616.833,304.167 616.833,304.167 615.5,303.5 Z"/></g>
<g><path style="opacity:0.094" fill="#fefffe" d="M 673.5,304.5 C 673.842,303.662 674.508,303.328 675.5,303.5C 675.158,304.338 674.492,304.672 673.5,304.5 Z"/></g>
<g><path style="opacity:0.133" fill="#fefffe" d="M 673.5,304.5 C 672.833,305.167 672.833,305.167 673.5,304.5 Z"/></g>
<g><path style="opacity:0.435" fill="#fefffe" d="M 567.5,306.5 C 566.761,306.631 566.094,306.464 565.5,306C 566.437,305.308 567.103,305.475 567.5,306.5 Z"/></g>
<g><path style="opacity:0.027" fill="#fefffe" d="M 672.5,305.5 C 671.833,306.167 671.833,306.167 672.5,305.5 Z"/></g>
<g><path style="opacity:0.024" fill="#fefffe" d="M 197.5,307.5 C 197.897,306.475 198.563,306.308 199.5,307C 198.906,307.464 198.239,307.631 197.5,307.5 Z"/></g>
<g><path style="opacity:0.02" fill="#fefffe" d="M 559.5,306.5 C 560.833,307.167 560.833,307.167 559.5,306.5 Z"/></g>
<g><path style="opacity:0.142" fill="#fefffe" d="M 645.5,308.5 C 644.711,308.217 644.044,307.717 643.5,307C 644.816,306.472 645.483,306.972 645.5,308.5 Z"/></g>
<g><path style="opacity:0.016" fill="#fefffe" d="M 646.5,306.5 C 647.833,307.167 647.833,307.167 646.5,306.5 Z"/></g>
<g><path style="opacity:0.258" fill="#fefffe" d="M 671.5,306.5 C 669.102,308.974 666.102,310.308 662.5,310.5C 665.161,308.512 668.161,307.179 671.5,306.5 Z"/></g>
<g><path style="opacity:0.224" fill="#fefffe" d="M 547.5,307.5 C 548.833,308.167 548.833,308.167 547.5,307.5 Z"/></g>
<g><path style="opacity:0.024" fill="#fefffe" d="M 196.5,310.5 C 195.475,310.103 195.308,309.437 196,308.5C 196.464,309.094 196.631,309.761 196.5,310.5 Z"/></g>
<g><path style="opacity:0.094" fill="#fefffe" d="M 445.5,308.5 C 446.833,309.167 446.833,309.167 445.5,308.5 Z"/></g>
<g><path style="opacity:0.039" fill="#fefffe" d="M 645.5,308.5 C 646.525,308.897 646.692,309.563 646,310.5C 645.536,309.906 645.369,309.239 645.5,308.5 Z"/></g>
<g><path style="opacity:0.024" fill="#fefffe" d="M 196.5,310.5 C 197.239,310.369 197.906,310.536 198.5,311C 197.563,311.692 196.897,311.525 196.5,310.5 Z"/></g>
<g><path style="opacity:0.145" fill="#fefffe" d="M 287.5,310.5 C 288.833,311.167 288.833,311.167 287.5,310.5 Z"/></g>
<g><path style="opacity:0.188" fill="#fefffe" d="M 310.5,310.5 C 311.833,311.167 311.833,311.167 310.5,310.5 Z"/></g>
<g><path style="opacity:0.063" fill="#fefffe" d="M 648.5,311.5 C 647.833,310.167 647.833,310.167 648.5,311.5 Z"/></g>
<g><path style="opacity:0.042" fill="#fefffe" d="M 659.5,311.5 C 660.209,310.596 661.209,310.263 662.5,310.5C 661.791,311.404 660.791,311.737 659.5,311.5 Z"/></g>
<g><path style="opacity:0.02" fill="#fefffe" d="M 743.5,310.5 C 744.833,311.167 744.833,311.167 743.5,310.5 Z"/></g>
<g><path style="opacity:0.02" fill="#fefffe" d="M 600.5,311.5 C 601.833,312.167 601.833,312.167 600.5,311.5 Z"/></g>
<g><path style="opacity:0.047" fill="#fefffe" d="M 648.5,311.5 C 649.833,312.167 649.833,312.167 648.5,311.5 Z"/></g>
<g><path style="opacity:0.016" fill="#fefffe" d="M 652.5,312.5 C 653.251,311.427 654.251,311.26 655.5,312C 654.552,312.483 653.552,312.649 652.5,312.5 Z"/></g>
<g><path style="opacity:0.052" fill="#fefffe" d="M 659.5,311.5 C 658.749,312.573 657.749,312.74 656.5,312C 657.448,311.517 658.448,311.351 659.5,311.5 Z"/></g>
<g><path style="opacity:0.416" fill="#fefffe" d="M 446.5,313.5 C 445.833,312.167 445.833,312.167 446.5,313.5 Z"/></g>
<g><path style="opacity:0.024" fill="#fefffe" d="M 195.5,313.5 C 196.833,314.167 196.833,314.167 195.5,313.5 Z"/></g>
<g><path style="opacity:0.027" fill="#fefffe" d="M 718.5,314.5 C 719.833,315.167 719.833,315.167 718.5,314.5 Z"/></g>
<g><path style="opacity:0.02" fill="#fefffe" d="M 730.5,316.5 C 731.833,317.167 731.833,317.167 730.5,316.5 Z"/></g>
<g><path style="opacity:0.11" fill="#fefffe" d="M 365.5,318.5 C 366.833,319.167 366.833,319.167 365.5,318.5 Z"/></g>
<g><path style="opacity:0.016" fill="#fefffe" d="M 615.5,319.5 C 616.833,320.167 616.833,320.167 615.5,319.5 Z"/></g>
<g><path style="opacity:0.886" fill="#fefffe" d="M 230.5,321.5 C 231.833,322.167 231.833,322.167 230.5,321.5 Z"/></g>
<g><path style="opacity:0.118" fill="#fefffe" d="M 362.5,325.5 C 363.833,326.167 363.833,326.167 362.5,325.5 Z"/></g>
<g><path style="opacity:0.871" fill="#fefffe" d="M 477.5,325.5 C 478.833,326.167 478.833,326.167 477.5,325.5 Z"/></g>
<g><path style="opacity:0.184" fill="#fefffe" d="M 483.5,325.5 C 482.833,326.167 482.833,326.167 483.5,325.5 Z"/></g>
<g><path style="opacity:0.988" fill="#fefffe" d="M 416.5,327.5 C 415.833,328.167 415.833,328.167 416.5,327.5 Z"/></g>
<g><path style="opacity:0.152" fill="#fefffe" d="M 124.5,328.5 C 127.001,328.511 127.168,329.178 125,330.5C 124.536,329.906 124.369,329.239 124.5,328.5 Z"/></g>
<g><path style="opacity:0.498" fill="#fefffe" d="M 481.5,328.5 C 482.833,329.167 482.833,329.167 481.5,328.5 Z"/></g>
<g><path style="opacity:0.035" fill="#fefffe" d="M 569.5,329.5 C 569.897,328.475 570.563,328.308 571.5,329C 570.906,329.464 570.239,329.631 569.5,329.5 Z"/></g>
<g><path style="opacity:0.071" fill="#fefffe" d="M 682.5,328.5 C 683.833,329.167 683.833,329.167 682.5,328.5 Z"/></g>
<g><path style="opacity:0.047" fill="#fefffe" d="M 691.5,330.5 C 691.897,329.475 692.563,329.308 693.5,330C 692.906,330.464 692.239,330.631 691.5,330.5 Z"/></g>
<g><path style="opacity:0.125" fill="#fefffe" d="M 100.5,330.5 C 101.833,331.167 101.833,331.167 100.5,330.5 Z"/></g>
<g><path style="opacity:0.116" fill="#fefffe" d="M 102.5,330.5 C 103.525,330.897 103.692,331.563 103,332.5C 102.536,331.906 102.369,331.239 102.5,330.5 Z"/></g>
<g><path style="opacity:0.071" fill="#fefffe" d="M 98.5,331.5 C 99.8333,332.167 99.8333,332.167 98.5,331.5 Z"/></g>
<g><path style="opacity:0.051" fill="#fefffe" d="M 91.5,333.5 C 91.8966,332.475 92.5632,332.308 93.5,333C 92.9056,333.464 92.2389,333.631 91.5,333.5 Z"/></g>
<g><path style="opacity:0.58" fill="#fefffe" d="M 95.5,337.5 C 93.6889,338.822 91.6889,339.322 89.5,339C 92,337.833 93.8333,336 95,333.5C 95.6667,334.833 96.3333,334.833 97,333.5C 97.1667,334 97.3333,334.5 97.5,335C 96.4909,335.355 95.8243,336.188 95.5,337.5 Z"/></g>
<g><path style="opacity:0.173" fill="#fefffe" d="M 479.5,333.5 C 480.833,334.167 480.833,334.167 479.5,333.5 Z"/></g>
<g><path style="opacity:0.078" fill="#fefffe" d="M 697.5,333.5 C 698.833,334.167 698.833,334.167 697.5,333.5 Z"/></g>
<g><path style="opacity:0.02" fill="#fefffe" d="M 754.5,333.5 C 755.833,334.167 755.833,334.167 754.5,333.5 Z"/></g>
<g><path style="opacity:0.016" fill="#fefffe" d="M 89.5,334.5 C 90.8333,335.167 90.8333,335.167 89.5,334.5 Z"/></g>
<g><path style="opacity:0.59" fill="#fefffe" d="M 100.5,335.5 C 99.7611,335.631 99.0944,335.464 98.5,335C 99.4368,334.308 100.103,334.475 100.5,335.5 Z"/></g>
<g><path style="opacity:0.501" fill="#fefffe" d="M 100.5,335.5 C 103.645,334.041 105.145,335.041 105,338.5C 103.192,338.112 101.525,338.112 100,338.5C 99.5304,337.423 99.6971,336.423 100.5,335.5 Z"/></g>
<g><path style="opacity:0.024" fill="#fefffe" d="M 470.5,335.5 C 471.833,336.167 471.833,336.167 470.5,335.5 Z"/></g>
<g><path style="opacity:0.016" fill="#fefffe" d="M 358.5,336.5 C 359.833,337.167 359.833,337.167 358.5,336.5 Z"/></g>
<g><path style="opacity:0.024" fill="#fefffe" d="M 627.5,336.5 C 628.525,336.897 628.692,337.563 628,338.5C 627.536,337.906 627.369,337.239 627.5,336.5 Z"/></g>
<g><path style="opacity:0.043" fill="#fefffe" d="M 95.5,337.5 C 96.8333,338.167 96.8333,338.167 95.5,337.5 Z"/></g>
<g><path style="opacity:0.039" fill="#fefffe" d="M 328.5,337.5 C 329.833,338.167 329.833,338.167 328.5,337.5 Z"/></g>
<g><path style="opacity:0.082" fill="#fefffe" d="M 539.5,337.5 C 540.833,338.167 540.833,338.167 539.5,337.5 Z"/></g>
<g><path style="opacity:0.018" fill="#fefffe" d="M 541.5,338.5 C 541.897,337.475 542.563,337.308 543.5,338C 542.906,338.464 542.239,338.631 541.5,338.5 Z"/></g>
<g><path style="opacity:0.075" fill="#fefffe" d="M 697.5,337.5 C 698.833,338.167 698.833,338.167 697.5,337.5 Z"/></g>
<g><path style="opacity:0.029" fill="#fefffe" d="M 325.5,340.5 C 325.897,339.475 326.563,339.308 327.5,340C 326.906,340.464 326.239,340.631 325.5,340.5 Z"/></g>
<g><path style="opacity:0.365" fill="#fefffe" d="M 631.5,340.5 C 631.897,339.475 632.563,339.308 633.5,340C 632.906,340.464 632.239,340.631 631.5,340.5 Z"/></g>
<g><path style="opacity:0.094" fill="#fefffe" d="M 419.5,340.5 C 420.289,340.783 420.956,341.283 421.5,342C 420.184,342.528 419.517,342.028 419.5,340.5 Z"/></g>
<g><path style="opacity:0.561" fill="#fefffe" d="M 477.5,341.5 C 478.833,342.167 478.833,342.167 477.5,341.5 Z"/></g>
<g><path style="opacity:0.047" fill="#fefffe" d="M 701.5,342.5 C 701.897,341.475 702.563,341.308 703.5,342C 702.906,342.464 702.239,342.631 701.5,342.5 Z"/></g>
<g><path style="opacity:0.024" fill="#fefffe" d="M 705.5,341.5 C 706.833,342.167 706.833,342.167 705.5,341.5 Z"/></g>
<g><path style="opacity:0.575" fill="#fefffe" d="M 107.5,343.5 C 107.917,342.876 108.584,342.543 109.5,342.5C 112.145,343.108 114.812,343.608 117.5,344C 114.132,344.543 110.799,344.376 107.5,343.5 Z"/></g>
<g><path style="opacity:0.071" fill="#fefffe" d="M 502.5,343.5 C 503.833,344.167 503.833,344.167 502.5,343.5 Z"/></g>
<g><path style="opacity:0.133" fill="#fefffe" d="M 476.5,344.5 C 477.833,345.167 477.833,345.167 476.5,344.5 Z"/></g>
<g><path style="opacity:0.149" fill="#fefffe" d="M 119.5,346.5 C 120.251,345.427 121.251,345.26 122.5,346C 121.552,346.483 120.552,346.649 119.5,346.5 Z"/></g>
<g><path style="opacity:0.047" fill="#fefffe" d="M 454.5,345.5 C 455.833,346.167 455.833,346.167 454.5,345.5 Z"/></g>
<g><path style="opacity:0.038" fill="#fefffe" d="M 500.5,351.5 C 501.573,352.251 501.74,353.251 501,354.5C 500.517,353.552 500.351,352.552 500.5,351.5 Z"/></g>
<g><path style="opacity:0.067" fill="#fefffe" d="M 197.5,352.5 C 200.001,352.511 200.168,353.178 198,354.5C 197.536,353.906 197.369,353.239 197.5,352.5 Z"/></g>
<g><path style="opacity:0.016" fill="#fefffe" d="M 313.5,352.5 C 314.833,353.167 314.833,353.167 313.5,352.5 Z"/></g>
<g><path style="opacity:0.306" fill="#fefffe" d="M 473.5,355.5 C 474.833,356.167 474.833,356.167 473.5,355.5 Z"/></g>
<g><path style="opacity:0.18" fill="#fefffe" d="M 286.5,356.5 C 287.525,356.897 287.692,357.563 287,358.5C 286.536,357.906 286.369,357.239 286.5,356.5 Z"/></g>
<g><path style="opacity:0.145" fill="#fefffe" d="M 474.5,360.5 C 473.833,359.167 473.833,359.167 474.5,360.5 Z"/></g>
<g><path style="opacity:0.212" fill="#fefffe" d="M 471.5,360.5 C 472.833,361.167 472.833,361.167 471.5,360.5 Z"/></g>
<g><path style="opacity:0.553" fill="#fefffe" d="M 492.5,373.5 C 493.833,374.167 493.833,374.167 492.5,373.5 Z"/></g>
<g><path style="opacity:0.098" fill="#fefffe" d="M 152.5,380.5 C 152.897,379.475 153.563,379.308 154.5,380C 153.906,380.464 153.239,380.631 152.5,380.5 Z"/></g>
<g><path style="opacity:0.088" fill="#fefffe" d="M 158.5,380.5 C 157.761,380.631 157.094,380.464 156.5,380C 157.437,379.308 158.103,379.475 158.5,380.5 Z"/></g>
<g><path style="opacity:0.075" fill="#fefffe" d="M 158.5,380.5 C 159.833,381.167 159.833,381.167 158.5,380.5 Z"/></g>
<g><path style="opacity:0.294" fill="#fefffe" d="M 465.5,380.5 C 466.833,381.167 466.833,381.167 465.5,380.5 Z"/></g>
<g><path style="opacity:0.227" fill="#fefffe" d="M 153.5,383.5 C 152.833,382.167 152.833,382.167 153.5,383.5 Z"/></g>
<g><path style="opacity:0.875" fill="#fefffe" d="M 155.5,385.5 C 154.167,385.5 153.5,384.833 153.5,383.5C 157.512,381.81 158.178,382.477 155.5,385.5 Z"/></g>
<g><path style="opacity:0.145" fill="#fefffe" d="M 155.5,385.5 C 156.833,386.167 156.833,386.167 155.5,385.5 Z"/></g>
<g><path style="opacity:0.02" fill="#fefffe" d="M 486.5,400.5 C 487.833,401.167 487.833,401.167 486.5,400.5 Z"/></g>
<g><path style="opacity:0.302" fill="#fefffe" d="M 486.5,402.5 C 487.598,403.601 487.765,404.934 487,406.5C 486.51,405.207 486.343,403.873 486.5,402.5 Z"/></g>
<g><path style="opacity:0.02" fill="#fefffe" d="M 485.5,412.5 C 486.833,413.167 486.833,413.167 485.5,412.5 Z"/></g>
<g><path style="opacity:0.32" fill="#fefffe" d="M 455.5,416.5 C 456.289,416.783 456.956,417.283 457.5,418C 456.184,418.528 455.517,418.028 455.5,416.5 Z"/></g>
</svg>
